<?xml version="1.0" encoding="utf-8"?>
<!-- Generator: Adobe Illustrator 24.0.1, SVG Export Plug-In . SVG Version: 6.00 Build 0)  -->
<svg version="1.1" id="Layer_1" xmlns="http://www.w3.org/2000/svg" xmlns:xlink="http://www.w3.org/1999/xlink" x="0px" y="0px"
	 viewBox="0 0 216 72" style="enable-background:new 0 0 216 72;" xml:space="preserve">
<style type="text/css">
	.st0{fill:#001689;}
	.st1{fill:none;stroke:#000000;stroke-width:0.569;}
	.st2{fill:#FFFFFF;}
</style>
<g>
	<path d="M26.31,32.11V27.1h11.48v13.71h-3.32l-0.87-2.51c-0.64,0.81-1.59,1.5-2.87,2.07c-1.77,0.79-3.89,1.19-6.34,1.19
		c-8.95,0-13.42-4.28-13.42-12.83c0-3.77,1.08-6.79,3.23-9.07c2.37-2.5,5.76-3.76,10.17-3.76c3.49,0,6.35,0.58,8.58,1.73
		c2.81,1.47,4.42,3.79,4.84,6.97h-8.04c-0.56-2.32-2.25-3.49-5.08-3.49c-2.09,0-3.7,0.74-4.81,2.23c-1.02,1.35-1.52,3.16-1.52,5.42
		c0,2.23,0.51,4.02,1.52,5.35c1.12,1.49,2.72,2.23,4.81,2.23c3.31,0,5.31-1.41,6.01-4.23H26.31z"/>
	<path d="M50.29,26.46c-1.46,0-2.6,0.44-3.42,1.32c-0.83,0.88-1.24,2.17-1.24,3.86c0,1.69,0.41,2.98,1.24,3.86
		c0.83,0.88,1.97,1.32,3.42,1.32c1.47,0,2.62-0.44,3.44-1.32c0.82-0.88,1.23-2.17,1.23-3.86c0-1.69-0.41-2.98-1.23-3.86
		C52.91,26.9,51.76,26.46,50.29,26.46 M38.92,31.64c0-3.23,0.98-5.69,2.93-7.38c1.95-1.69,4.76-2.54,8.43-2.54
		c3.67,0,6.48,0.85,8.43,2.54c1.95,1.69,2.93,4.15,2.93,7.38c0,3.23-0.98,5.69-2.93,7.38c-1.95,1.69-4.76,2.54-8.43,2.54
		c-3.67,0-6.48-0.85-8.43-2.54C39.9,37.33,38.92,34.87,38.92,31.64"/>
	<rect x="11.23" y="48.49" class="st0" width="1.36" height="6.4"/>
	<path class="st0" d="M15.58,54.89v-4.75h1.25v0.72c0.45-0.56,1.08-0.84,1.91-0.84c1.37,0,2.05,0.55,2.05,1.65v3.23h-1.25v-2.83
		c0-0.73-0.4-1.09-1.21-1.09c-0.39,0-0.72,0.1-0.99,0.31c-0.34,0.25-0.51,0.61-0.51,1.07v2.55H15.58z"/>
	<path class="st0" d="M24.73,52.53c0,0.45,0.12,0.81,0.37,1.09c0.28,0.33,0.7,0.49,1.25,0.49c0.55,0,0.96-0.16,1.24-0.49
		c0.25-0.28,0.37-0.65,0.37-1.09c0-0.44-0.12-0.8-0.37-1.08c-0.28-0.32-0.7-0.48-1.24-0.48c-0.55,0-0.97,0.16-1.25,0.48
		C24.85,51.73,24.73,52.09,24.73,52.53 M29.17,48.38v6.51h-1.25v-0.66c-0.05,0.17-0.25,0.35-0.58,0.52
		c-0.39,0.21-0.81,0.31-1.27,0.31c-0.86,0-1.53-0.27-2.01-0.82c-0.42-0.47-0.63-1.04-0.63-1.72c0-0.67,0.21-1.24,0.63-1.71
		c0.49-0.54,1.16-0.81,2.01-0.81c0.88,0,1.5,0.27,1.85,0.81v-2.44H29.17z"/>
	<path class="st0" d="M31.99,53.31v-3.17h1.25v2.71c0,0.42,0.07,0.72,0.22,0.91c0.19,0.25,0.53,0.37,1.03,0.37
		c0.35,0,0.66-0.1,0.93-0.31c0.35-0.26,0.53-0.61,0.53-1.07v-2.61h1.25v4.75h-1.25v-0.66h-0.02c-0.45,0.56-1.08,0.84-1.9,0.84
		C32.67,55.07,31.99,54.48,31.99,53.31"/>
	<path class="st0" d="M39.79,53.4h1.36c0.03,0.55,0.47,0.82,1.33,0.82c0.36,0,0.65-0.05,0.89-0.13c0.28-0.11,0.42-0.27,0.42-0.48
		c0-0.19-0.09-0.33-0.27-0.4c-0.2-0.09-0.63-0.18-1.29-0.27c-0.85-0.11-1.41-0.25-1.7-0.39c-0.38-0.2-0.57-0.56-0.57-1.06
		c0-0.59,0.3-1.02,0.9-1.27c0.41-0.17,0.91-0.26,1.51-0.26c1.68,0,2.55,0.54,2.61,1.63h-1.31c-0.07-0.53-0.53-0.79-1.36-0.79
		c-0.33,0-0.6,0.06-0.79,0.17c-0.2,0.11-0.3,0.24-0.3,0.38c0,0.19,0.07,0.32,0.21,0.39c0.14,0.07,0.51,0.15,1.11,0.23
		c0.96,0.14,1.59,0.28,1.9,0.41c0.48,0.21,0.72,0.57,0.72,1.07c0,1.08-0.89,1.62-2.66,1.62C40.73,55.07,39.83,54.51,39.79,53.4"/>
	<path class="st0" d="M48.14,53.56v-2.53h-1v-0.9h1v-1.47h1.25v1.47h1.31v0.9h-1.31v2.17c0,0.31,0.02,0.52,0.06,0.63
		c0.06,0.14,0.19,0.22,0.39,0.22h0.9v0.88C50.39,54.97,50.07,55,49.78,55c-0.7,0-1.16-0.13-1.39-0.39
		C48.22,54.42,48.14,54.08,48.14,53.56"/>
	<path class="st0" d="M53.25,54.89v-4.75h1.25v0.92c0.44-0.7,1.05-1.05,1.83-1.05c0.15,0,0.32,0.02,0.5,0.04v1.22
		c-0.25-0.08-0.52-0.12-0.8-0.12c-0.39,0-0.73,0.1-1.01,0.3c-0.35,0.26-0.53,0.63-0.53,1.13v2.29H53.25z"/>
	<path class="st0" d="M59.31,50.14h1.25v4.75h-1.25V50.14z M59.31,48.38h1.25v1h-1.25V48.38z"/>
	<path class="st0" d="M64.58,52.04h3.23c-0.07-0.43-0.28-0.76-0.64-0.98c-0.29-0.17-0.62-0.26-0.99-0.26
		c-0.36,0-0.67,0.08-0.94,0.25C64.9,51.27,64.68,51.6,64.58,52.04 M69.12,52.83h-4.54c0.02,0.34,0.14,0.63,0.36,0.87
		c0.29,0.32,0.71,0.48,1.27,0.48c0.67,0,1.15-0.23,1.43-0.68h1.36c-0.54,1.05-1.46,1.58-2.76,1.58c-1.01,0-1.78-0.26-2.31-0.78
		c-0.45-0.45-0.67-1.02-0.67-1.73c0-0.79,0.27-1.42,0.8-1.89c0.54-0.47,1.23-0.71,2.09-0.71c1,0,1.76,0.28,2.28,0.82
		c0.45,0.48,0.67,1.1,0.67,1.86V52.83z"/>
	<path class="st0" d="M71.55,53.4h1.36c0.03,0.55,0.47,0.82,1.33,0.82c0.36,0,0.65-0.05,0.89-0.13c0.28-0.11,0.42-0.27,0.42-0.48
		c0-0.19-0.09-0.33-0.27-0.4c-0.2-0.09-0.63-0.18-1.29-0.27c-0.85-0.11-1.41-0.25-1.7-0.39c-0.38-0.2-0.57-0.56-0.57-1.06
		c0-0.59,0.3-1.02,0.9-1.27c0.41-0.17,0.91-0.26,1.51-0.26c1.68,0,2.55,0.54,2.61,1.63h-1.31c-0.07-0.53-0.53-0.79-1.36-0.79
		c-0.33,0-0.6,0.06-0.79,0.17c-0.2,0.11-0.3,0.24-0.3,0.38c0,0.19,0.07,0.32,0.21,0.39c0.14,0.07,0.51,0.15,1.11,0.23
		c0.96,0.14,1.59,0.28,1.9,0.41c0.48,0.21,0.72,0.57,0.72,1.07c0,1.08-0.89,1.62-2.66,1.62C72.49,55.07,71.59,54.51,71.55,53.4"/>
	<path d="M72.95,26.46c-1.46,0-2.6,0.44-3.42,1.32c-0.83,0.88-1.24,2.17-1.24,3.86c0,1.69,0.41,2.98,1.24,3.86
		c0.83,0.88,1.97,1.32,3.42,1.32c1.47,0,2.62-0.44,3.44-1.32c0.82-0.88,1.23-2.17,1.23-3.86c0-1.69-0.41-2.98-1.23-3.86
		C75.57,26.9,74.42,26.46,72.95,26.46 M61.59,31.64c0-3.23,0.98-5.69,2.93-7.38c1.95-1.69,4.76-2.54,8.43-2.54
		c3.67,0,6.48,0.85,8.43,2.54c1.95,1.69,2.93,4.15,2.93,7.38c0,3.23-0.98,5.69-2.93,7.38c-1.95,1.69-4.76,2.54-8.43,2.54
		c-3.67,0-6.48-0.85-8.43-2.54C62.56,37.33,61.59,34.87,61.59,31.64"/>
	<path d="M99.79,31.67c0-1.44-0.39-2.58-1.17-3.42C97.85,27.42,96.73,27,95.28,27c-2.99,0-4.48,1.56-4.48,4.67
		c0,3.11,1.49,4.67,4.48,4.67c1.45,0,2.57-0.42,3.35-1.25C99.41,34.26,99.79,33.12,99.79,31.67 M99.97,40.81v-2.17h-0.06
		c-1.4,1.94-3.45,2.91-6.16,2.91c-2.91,0-5.2-0.87-6.88-2.61c-1.73-1.76-2.6-4.21-2.6-7.35c0-2.75,0.83-5.02,2.49-6.8
		c1.74-1.87,4.06-2.81,6.96-2.81c2.9,0,4.92,0.94,6.06,2.81v-8.7h6.34v24.71H99.97z"/>
	<polygon points="112.02,40.81 106.16,22.46 113.04,22.46 116.39,34.52 116.45,34.52 120.13,22.46 125.86,22.46 129.54,34.52 
		129.6,34.52 132.95,22.46 139.83,22.46 133.97,40.81 126.43,40.81 123.02,30.01 122.97,30.01 119.56,40.81 	"/>
	<path d="M140.01,40.81h6.34V22.46h-6.34V40.81z M140.01,20.36h6.34v-4.33h-6.34V20.36z"/>
	<rect x="148.26" y="16.03" width="6.34" height="24.78"/>
	<rect x="156.51" y="16.03" width="6.34" height="24.78"/>
	<path class="st0" d="M85.61,52.51c0,0.46,0.13,0.83,0.38,1.11c0.29,0.33,0.72,0.49,1.29,0.49c0.57,0,1-0.16,1.29-0.49
		c0.25-0.28,0.38-0.65,0.38-1.11c0-0.46-0.13-0.83-0.38-1.11c-0.29-0.33-0.72-0.49-1.29-0.49c-0.57,0-1,0.17-1.29,0.49
		C85.74,51.68,85.61,52.05,85.61,52.51 M84.3,52.51c0-0.72,0.23-1.31,0.68-1.77c0.53-0.53,1.29-0.79,2.3-0.79s1.77,0.26,2.3,0.79
		c0.45,0.45,0.68,1.04,0.68,1.77c0,0.72-0.23,1.31-0.68,1.77c-0.53,0.53-1.29,0.79-2.3,0.79s-1.77-0.26-2.3-0.79
		C84.53,53.82,84.3,53.23,84.3,52.51"/>
	<path class="st0" d="M93.26,54.89v-3.85h-0.99v-0.9h0.99v-0.61c0-0.81,0.48-1.22,1.44-1.22c0.36,0,0.74,0.01,1.13,0.04v0.9
		c-0.18-0.02-0.4-0.04-0.64-0.04c-0.28,0-0.46,0.04-0.55,0.12c-0.08,0.08-0.13,0.23-0.13,0.45v0.37h1.32v0.9h-1.32v3.85H93.26z"/>
	<path class="st0" d="M105.03,52.3h2.23l-1.11-2.7L105.03,52.3z M102.48,54.89l2.89-6.4h1.62l2.89,6.4h-1.52l-0.68-1.59h-3.05
		l-0.67,1.59H102.48z"/>
	<path class="st0" d="M112.11,54.89v-4.75h1.25v0.92c0.44-0.7,1.05-1.05,1.83-1.05c0.15,0,0.32,0.02,0.5,0.04v1.22
		c-0.25-0.08-0.51-0.12-0.8-0.12c-0.39,0-0.73,0.1-1.01,0.3c-0.35,0.26-0.53,0.63-0.53,1.13v2.29H112.11z"/>
	<polygon class="st0" points="118.13,54.89 118.13,48.38 119.39,48.38 119.39,52.04 121.61,50.14 123.38,50.14 121.16,51.93 
		123.57,54.89 121.88,54.89 120.18,52.72 119.39,53.35 119.39,54.89 	"/>
	<path class="st0" d="M129.58,52.98v-0.46c-0.24,0.1-0.79,0.2-1.64,0.3c-0.45,0.05-0.77,0.14-0.94,0.25
		c-0.15,0.1-0.23,0.26-0.23,0.47c0,0.5,0.34,0.74,1.01,0.74c0.45,0,0.83-0.09,1.15-0.26C129.37,53.79,129.58,53.44,129.58,52.98
		 M130.84,51.55v2.25c0,0.18,0.09,0.27,0.27,0.27c0.18,0,0.31-0.01,0.41-0.03v0.87c-0.39,0.07-0.69,0.11-0.89,0.11
		c-0.55,0-0.86-0.2-0.94-0.61c-0.46,0.44-1.21,0.66-2.26,0.66c-0.62,0-1.11-0.13-1.45-0.4c-0.34-0.26-0.51-0.63-0.51-1.09
		c0-0.57,0.26-0.97,0.78-1.21c0.29-0.13,0.75-0.23,1.38-0.29c0.9-0.08,1.45-0.16,1.67-0.22c0.22-0.07,0.32-0.19,0.32-0.38
		c0-0.46-0.45-0.68-1.36-0.68c-0.83,0-1.27,0.26-1.32,0.79h-1.23c0.09-0.59,0.35-1.02,0.81-1.28c0.4-0.23,0.98-0.35,1.73-0.35
		c1.1,0,1.85,0.19,2.23,0.56C130.72,50.75,130.84,51.09,130.84,51.55"/>
	<path class="st0" d="M133.88,54.89v-4.75h1.25v0.72c0.45-0.56,1.08-0.84,1.91-0.84c1.37,0,2.05,0.55,2.05,1.65v3.23h-1.25v-2.83
		c0-0.73-0.4-1.09-1.21-1.09c-0.39,0-0.72,0.1-0.99,0.31c-0.34,0.25-0.51,0.61-0.51,1.07v2.55H133.88z"/>
	<path class="st0" d="M141.68,53.4h1.36c0.03,0.55,0.47,0.82,1.33,0.82c0.36,0,0.65-0.05,0.89-0.13c0.28-0.11,0.42-0.27,0.42-0.48
		c0-0.19-0.09-0.33-0.27-0.4c-0.2-0.09-0.63-0.18-1.29-0.27c-0.85-0.11-1.41-0.25-1.7-0.39c-0.38-0.2-0.57-0.56-0.57-1.06
		c0-0.59,0.3-1.02,0.9-1.27c0.41-0.17,0.91-0.26,1.51-0.26c1.68,0,2.55,0.54,2.61,1.63h-1.31c-0.07-0.53-0.53-0.79-1.36-0.79
		c-0.33,0-0.6,0.06-0.79,0.17c-0.2,0.11-0.3,0.24-0.3,0.38c0,0.19,0.07,0.32,0.21,0.39c0.14,0.07,0.51,0.15,1.11,0.23
		c0.96,0.14,1.59,0.28,1.9,0.41c0.48,0.21,0.72,0.57,0.72,1.07c0,1.08-0.89,1.62-2.66,1.62C142.61,55.07,141.72,54.51,141.68,53.4"
		/>
	<path class="st0" d="M153.54,52.98v-0.46c-0.24,0.1-0.79,0.2-1.64,0.3c-0.45,0.05-0.77,0.14-0.94,0.25
		c-0.15,0.1-0.23,0.26-0.23,0.47c0,0.5,0.34,0.74,1.01,0.74c0.45,0,0.83-0.09,1.15-0.26C153.32,53.79,153.54,53.44,153.54,52.98
		 M154.79,51.55v2.25c0,0.18,0.09,0.27,0.27,0.27c0.18,0,0.31-0.01,0.41-0.03v0.87c-0.39,0.07-0.69,0.11-0.89,0.11
		c-0.55,0-0.86-0.2-0.94-0.61c-0.46,0.44-1.21,0.66-2.26,0.66c-0.62,0-1.11-0.13-1.45-0.4c-0.34-0.26-0.51-0.63-0.51-1.09
		c0-0.57,0.26-0.97,0.78-1.21c0.29-0.13,0.75-0.23,1.38-0.29c0.9-0.08,1.45-0.16,1.67-0.22c0.21-0.07,0.32-0.19,0.32-0.38
		c0-0.46-0.45-0.68-1.36-0.68c-0.83,0-1.27,0.26-1.32,0.79h-1.23c0.09-0.59,0.35-1.02,0.81-1.28c0.4-0.23,0.98-0.35,1.73-0.35
		c1.1,0,1.85,0.19,2.23,0.56C154.67,50.75,154.79,51.09,154.79,51.55"/>
	<path class="st0" d="M157.59,53.4h1.36c0.03,0.55,0.47,0.82,1.32,0.82c0.36,0,0.65-0.05,0.89-0.13c0.28-0.11,0.42-0.27,0.42-0.48
		c0-0.19-0.09-0.33-0.27-0.4c-0.2-0.09-0.63-0.18-1.29-0.27c-0.85-0.11-1.41-0.25-1.7-0.39c-0.38-0.2-0.57-0.56-0.57-1.06
		c0-0.59,0.3-1.02,0.9-1.27c0.41-0.17,0.91-0.26,1.51-0.26c1.68,0,2.55,0.54,2.61,1.63h-1.31c-0.07-0.53-0.53-0.79-1.36-0.79
		c-0.33,0-0.6,0.06-0.79,0.17c-0.2,0.11-0.3,0.24-0.3,0.38c0,0.19,0.07,0.32,0.21,0.39c0.14,0.07,0.51,0.15,1.11,0.23
		c0.96,0.14,1.59,0.28,1.9,0.41c0.48,0.21,0.72,0.57,0.72,1.07c0,1.08-0.89,1.62-2.66,1.62C158.52,55.07,157.62,54.51,157.59,53.4"
		/>
	<line class="st1" x1="11.51" y1="45.27" x2="162.85" y2="45.27"/>
	<g>
		<rect x="168.64" y="16.09" width="31.6" height="40.09"/>
		<path class="st2" d="M180.39,50.6c0,0.28,0.23,0.51,0.52,0.51c0.29,0,0.52-0.23,0.52-0.51c0-0.28-0.24-0.51-0.52-0.51
			C180.62,50.09,180.39,50.31,180.39,50.6 M179.37,49.11h2.97c0.13,0,0.25,0.09,0.25,0.19v2.74c0,0.11-0.11,0.19-0.25,0.19h-2.97
			c-0.14,0-0.24-0.08-0.24-0.19V49.3C179.12,49.2,179.23,49.11,179.37,49.11"/>
		<path class="st2" d="M176.15,50.6c0,0.28,0.23,0.51,0.52,0.51c0.29,0,0.52-0.23,0.52-0.51c0-0.28-0.23-0.51-0.52-0.51
			C176.38,50.09,176.15,50.31,176.15,50.6 M175.13,49.11h2.97c0.13,0,0.24,0.09,0.24,0.19v2.74c0,0.11-0.11,0.19-0.24,0.19h-2.97
			c-0.14,0-0.25-0.08-0.25-0.19V49.3C174.88,49.2,174.99,49.11,175.13,49.11"/>
		<path class="st2" d="M172.35,50.18c-0.29,0-0.53,0.23-0.53,0.51c0,0.28,0.23,0.51,0.53,0.51c0.29,0,0.52-0.23,0.52-0.51
			C172.87,50.41,172.63,50.18,172.35,50.18 M173.99,52.38c0,1.14-1.2,1.96-1.93,2.02c-1.12,0.09-1.17,0.04-1.17,0.04
			c-0.1,0-0.18-0.08-0.18-0.17v-0.91c0-0.1,0.08-0.17,0.18-0.17l0.48,0c0.46,0,0.84-0.16,1.09-0.5c0.05-0.06,0.07-0.11,0.07-0.16
			c0-0.13-0.11-0.24-0.25-0.24c-0.06,0-0.12,0.02-0.16,0.06c-0.23,0.25-0.49,0.37-0.81,0.37l-0.12,0h-0.29
			c-0.1,0-0.18-0.08-0.18-0.17v-3.27c0-0.1,0.08-0.17,0.18-0.17h2.92c0.1,0,0.18,0.08,0.18,0.17v2.8L173.99,52.38z"/>
		<path class="st2" d="M188.94,51.11c-0.11,0-0.2-0.08-0.2-0.19v-0.35V49.3c0-0.1-0.09-0.19-0.19-0.19h-0.77
			c-0.11,0-0.2,0.08-0.2,0.19v2.74c0,0.11,0.09,0.19,0.2,0.19h0.13l0.66,0l0.98,0l0.8,0l0.9,0l0.82,0.01c0.11,0,0.2-0.09,0.2-0.19
			V49.3c0-0.1-0.09-0.19-0.2-0.19h-0.77c-0.11,0-0.19,0.08-0.19,0.19v1.64c-0.01,0.09-0.1,0.17-0.2,0.17h-0.22
			c-0.11,0-0.2-0.08-0.2-0.19v-0.35V49.3c0-0.1-0.09-0.19-0.19-0.19h-0.75c-0.11,0-0.2,0.08-0.2,0.19v1.27v0.35
			c0,0.11-0.09,0.19-0.19,0.19H188.94z"/>
		<path class="st2" d="M185.65,50.64v-0.1c-0.03-0.26-0.25-0.46-0.52-0.46c-0.29,0-0.53,0.23-0.53,0.51c0,0.28,0.23,0.51,0.53,0.51
			C185.4,51.11,185.63,50.9,185.65,50.64 M185.85,47.62h0.77c0.11,0,0.2,0.09,0.2,0.19v4.23c0,0.11-0.09,0.19-0.2,0.19h-0.77h-2.32
			c-0.11,0-0.2-0.09-0.2-0.19V49.3c0-0.1,0.09-0.19,0.2-0.19h1.93c0.1,0,0.18-0.07,0.19-0.16v-1.14
			C185.65,47.71,185.74,47.62,185.85,47.62"/>
		<path class="st2" d="M193.23,47.62c-0.11,0-0.19,0.09-0.19,0.19v0.82c0,0.1,0.09,0.19,0.19,0.19H194c0.11,0,0.2-0.09,0.2-0.19
			v-0.82c0-0.1-0.09-0.19-0.2-0.19H193.23z"/>
		<path class="st2" d="M193.23,49.11c-0.11,0-0.19,0.09-0.19,0.19v2.74c0,0.11,0.09,0.19,0.19,0.19H194c0.11,0,0.2-0.08,0.2-0.19
			V49.3c0-0.1-0.09-0.19-0.2-0.19H193.23z"/>
		<path class="st2" d="M195.16,47.62c-0.11,0-0.19,0.09-0.19,0.19v4.23c0,0.11,0.09,0.19,0.19,0.19h0.75c0.11,0,0.19-0.09,0.19-0.19
			v-4.23c0-0.1-0.09-0.19-0.19-0.19H195.16z"/>
		<path class="st2" d="M197.08,47.62c-0.11,0-0.19,0.09-0.19,0.19v4.23c0,0.11,0.09,0.19,0.19,0.19h0.75c0.11,0,0.19-0.09,0.19-0.19
			v-4.23c0-0.1-0.09-0.19-0.19-0.19H197.08z"/>
		<path class="st2" d="M170.79,40.08h3.71c4.9,0,8.84-3.83,8.84-8.54l0-13.35h-1.78h-10.77v15.13l0.13,0.01h1.29
			c1.67,0,3.13-0.74,4.09-1.9l1.83,1.08c-1.32,1.77-3.47,2.9-5.89,2.9h-1.41l-0.03,3.81V40.08z"/>
		<path class="st0" d="M198.08,18.19h-11.22h-1.35v13.34c0,5.89-4.9,10.65-10.95,10.65l-3.76,0v1.38v2.52h27.29V18.19z"/>
		<g>
			<path d="M203.44,52.83c0.3,0,0.59,0.07,0.87,0.22c0.28,0.15,0.5,0.36,0.66,0.63c0.16,0.27,0.24,0.56,0.24,0.86
				c0,0.3-0.08,0.58-0.23,0.85c-0.16,0.27-0.37,0.48-0.65,0.63c-0.28,0.15-0.57,0.23-0.88,0.23c-0.31,0-0.6-0.08-0.88-0.23
				c-0.28-0.15-0.5-0.36-0.65-0.63c-0.16-0.27-0.23-0.56-0.23-0.85c0-0.3,0.08-0.58,0.24-0.86c0.16-0.27,0.38-0.49,0.66-0.63
				C202.86,52.9,203.15,52.83,203.44,52.83z M203.44,53.11c-0.25,0-0.49,0.06-0.72,0.19c-0.24,0.12-0.42,0.3-0.55,0.53
				c-0.13,0.23-0.2,0.47-0.2,0.72c0,0.25,0.07,0.48,0.19,0.71c0.13,0.23,0.31,0.4,0.55,0.53c0.23,0.13,0.48,0.19,0.73,0.19
				c0.25,0,0.5-0.06,0.73-0.19c0.23-0.13,0.42-0.3,0.55-0.53c0.13-0.23,0.19-0.46,0.19-0.71c0-0.25-0.07-0.49-0.2-0.72
				c-0.13-0.23-0.31-0.41-0.55-0.53C203.93,53.17,203.69,53.11,203.44,53.11z M202.67,55.49v-1.84h0.65c0.22,0,0.38,0.02,0.48,0.05
				c0.1,0.03,0.18,0.09,0.24,0.18c0.06,0.08,0.09,0.18,0.09,0.27c0,0.13-0.05,0.25-0.15,0.35c-0.1,0.1-0.23,0.16-0.39,0.17
				c0.07,0.03,0.12,0.06,0.16,0.1c0.08,0.07,0.17,0.19,0.28,0.37l0.23,0.36h-0.37l-0.17-0.29c-0.13-0.23-0.24-0.37-0.32-0.43
				c-0.06-0.04-0.14-0.06-0.25-0.06h-0.18v0.78H202.67z M202.98,54.45h0.37c0.18,0,0.3-0.03,0.36-0.08c0.07-0.05,0.1-0.12,0.1-0.2
				c0-0.05-0.02-0.1-0.05-0.15c-0.03-0.04-0.07-0.08-0.13-0.1c-0.06-0.02-0.16-0.03-0.31-0.03h-0.35V54.45z"/>
		</g>
		<path d="M174.25,24.69c0-1.5,1.25-2.71,2.79-2.71c1.54,0,2.79,1.21,2.79,2.71c0,1.5-1.25,2.71-2.79,2.71
			C175.5,27.41,174.25,26.19,174.25,24.69"/>
	</g>
</g>
</svg>
